<?xml version="1.0" encoding="utf-8"?>
<!-- Generator: Adobe Illustrator 25.0.0, SVG Export Plug-In . SVG Version: 6.00 Build 0)  -->
<svg version="1.1" id="Layer_1" xmlns="http://www.w3.org/2000/svg" xmlns:xlink="http://www.w3.org/1999/xlink" x="0px" y="0px"
	 viewBox="0 0 700 700" style="enable-background:new 0 0 700 700;" xml:space="preserve">
<g>
	<path d="M477.1,335.7c0-70-57.1-127.1-127.1-127.1s-127.1,57.1-127.1,127.1c0,10.1,1.1,20.2,3.9,30.2c3.4,16.2,9.5,26.3,17.9,40.3
		c1.7,3.4,3.9,6.7,6.2,10.6c2.8,4.5,5,9,7.8,12.9c11.2,18.5,17.9,29.1,17.9,51v52.6c0,13.4,9.5,24.1,22.4,26.3
		c5.6,28.6,22.4,46.5,51,46.5c28.6,0,45.9-17.9,51-46.5c12.9-2.2,22.4-13.4,22.4-26.3v-52.6c0-21.8,6.7-33,17.9-51
		c2.2-3.9,5-8.4,7.8-12.9c2.2-3.9,4.5-7.3,6.2-10.6c8.4-14,14.6-24.1,17.9-40.3C476,355.9,477.1,345.8,477.1,335.7L477.1,335.7z
		 M401.5,494.2H299.6v-12.9c0-2.8,0-5-0.6-7.3h102.5c0,2.2-0.6,4.5-0.6,7.3v12.9H401.5z M396.5,538.4h-93c-2.8,0-4.5-2.2-4.5-4.5
		v-17.4H401V534C401.5,536.2,399.3,538.4,396.5,538.4L396.5,538.4z M350,584.4c-6.2,0-21.8,0-28-23.5h56.6
		C372.4,584.4,356.2,584.4,350,584.4z M451.4,361.5c-2.8,12.3-7.3,20.7-15.1,33.6c-2.2,3.4-3.9,6.7-6.2,10.6c-2.8,4.5-5,9-7.3,12.3
		c-6.7,11.2-12.9,21.3-16.8,33H295.1c-3.9-11.8-9.5-21.8-16.8-33c-2.2-3.9-5-7.8-7.3-12.3c-2.2-3.9-4.5-7.8-6.2-10.6
		c-7.8-13.4-12.3-21.3-15.1-34.2c-2.2-8.4-3.4-16.8-3.4-25.2c0-57.7,47-104.7,104.7-104.7c57.7,0,104.7,47,104.7,104.7
		C454.7,344.1,453.6,352.5,451.4,361.5L451.4,361.5z"/>
	<g>
		<path d="M580.4,324.5H534c-6.2,0-11.2,5-11.2,11.2s5,11.2,11.2,11.2h46.5c6.2,0,11.2-5,11.2-11.2
			C591.6,329.6,586.6,324.5,580.4,324.5L580.4,324.5z"/>
		<path d="M479.6,217c2.8,0,5.6-1.1,7.8-3.4l33-33c4.5-4.5,4.5-11.2,0-15.7s-11.2-4.5-15.7,0l-33,33c-4.5,4.5-4.5,11.2,0,15.7
			C474,215.9,476.8,217,479.6,217L479.6,217z"/>
		<path d="M349.7,162.7c6.2,0,11.2-5,11.2-11.2V105c0-6.2-5-11.2-11.2-11.2s-11.2,5-11.2,11.2v46.5
			C338.5,157.6,343.6,162.7,349.7,162.7z"/>
		<path d="M212,213.6c2.2,2.2,5,3.4,7.8,3.4s5.6-1.1,7.8-3.4c4.5-4.5,4.5-11.2,0-15.7l-33-33c-4.5-4.5-11.2-4.5-15.7,0
			s-4.5,11.2,0,15.7L212,213.6z"/>
		<path d="M166,324.5h-46.5c-6.2,0-11.2,5-11.2,11.2s5,11.2,11.2,11.2H166c6.2,0,11.2-5,11.2-11.2
			C177.2,329.6,172.2,324.5,166,324.5L166,324.5z"/>
		<path d="M212,457.8l-33,33c-4.5,4.5-4.5,11.2,0,15.7c2.2,2.2,5,3.4,7.8,3.4c2.8,0,5.6-1.1,7.8-3.4l33-33c4.5-4.5,4.5-11.2,0-15.7
			C223.2,453.3,215.9,453.3,212,457.8L212,457.8z"/>
		<path d="M487.5,457.8c-4.5-4.5-11.2-4.5-15.7,0s-4.5,11.2,0,15.7l33,33c2.2,2.2,5,3.4,7.8,3.4c2.8,0,5.6-1.1,7.8-3.4
			c4.5-4.5,4.5-11.2,0-15.7L487.5,457.8z"/>
	</g>
</g>
</svg>
